# xmcd
#
# Track frame offsets: 
#        150
#        12517
#        28497
#        43354
#        59872
#        70654
#        75215
#        84389
#        89347
#        101129
#        115608
#        128624
#
# Disc length: 1872 seconds
#
# Revision: 0
# Processed by: cddbd v1.5.2PL0 Copyright (c) Steve Scherf et al.
# Submitted via: ExactAudioCopy v0.95b3
#
DISCID=9d074e0c
DTITLE=Nrbq  - RC Cola And A Moon Pie  
DYEAR=1900
DGENRE=
TTITLE0=Mona
TTITLE1=RC Cola And A Moon Pie
TTITLE2=C'mon If You're Comin'
TTITLE3=Ratch-I-Tatch
TTITLE4=Deaf, Dumb, And Blind
TTITLE5=Louisville
TTITLE6=Sourpuss
TTITLE7=Miss Moses
TTITLE8=I Got A Little Secret
TTITLE9=Get That Gasoline Blues
TTITLE10=Don't Knock At My Door
TTITLE11=Four Million B. C.
EXTD=
EXTT0=
EXTT1=
EXTT2=
EXTT3=
EXTT4=
EXTT5=
EXTT6=
EXTT7=
EXTT8=
EXTT9=
EXTT10=
EXTT11=
PLAYORDER=
